<?xml version="1.0" standalone="no"?>
<!DOCTYPE svg PUBLIC "-//W3C//DTD SVG 20010904//EN"
 "http://www.w3.org/TR/2001/REC-SVG-20010904/DTD/svg10.dtd">
<svg version="1.0" xmlns="http://www.w3.org/2000/svg"
 width="400.000000pt" height="400.000000pt" viewBox="0 0 400.000000 400.000000"
 preserveAspectRatio="xMidYMid meet">
<metadata>
Created by potrace 1.14, written by Peter Selinger 2001-2017
</metadata>
<g transform="translate(0.000000,400.000000) scale(0.100000,-0.100000)"
fill="#000000" stroke="none">
<path d="M1167 3934 c-1 -1 -72 -4 -157 -7 -166 -6 -184 -9 -297 -37 -267 -69
-488 -291 -558 -561 -30 -113 -35 -161 -41 -349 -10 -365 -2 -1990 10 -2070
19 -123 23 -137 48 -210 44 -123 131 -253 222 -330 17 -14 37 -32 46 -40 9 -8
30 -23 46 -32 16 -9 29 -21 29 -27 0 -5 4 -13 9 -18 5 -5 6 -3 2 5 -4 6 -3 12
1 12 9 0 87 -35 146 -65 17 -9 25 -10 21 -3 -5 7 -3 8 7 2 8 -4 19 -9 24 -11
6 -1 21 -4 35 -8 14 -3 48 -8 75 -11 28 -3 55 -10 62 -15 7 -6 13 -6 17 0 5 7
41 8 41 1 0 -2 133 -3 295 -4 163 -1 302 -6 309 -11 8 -5 12 -4 8 1 -7 12 454
11 472 -1 8 -5 12 -4 8 1 -7 12 454 11 472 -1 8 -5 12 -4 9 1 -4 5 94 9 235 9
133 -1 254 2 270 6 19 5 25 4 21 -3 -4 -7 -2 -8 5 -4 7 5 31 10 54 12 60 6 98
12 132 19 17 4 35 8 42 9 7 1 16 5 19 9 4 4 14 7 23 7 9 0 29 7 45 15 15 8 33
15 39 15 6 0 18 7 28 16 10 9 29 17 42 18 14 0 23 4 22 7 -2 3 19 23 48 45 69
53 152 136 182 184 35 55 88 161 100 200 33 105 41 162 51 330 5 95 5 1887 0
2005 -6 131 -18 218 -40 290 -2 6 -6 24 -11 40 -13 50 -74 167 -114 220 -156
207 -353 306 -658 331 -63 6 -1890 13 -1896 8z"/>
<path d="M3250 161 c0 -6 4 -13 10 -16 6 -3 7 1 4 9 -7 18 -14 21 -14 7z"/>
<path d="M1250 120 c0 -5 5 -10 11 -10 5 0 7 5 4 10 -3 6 -8 10 -11 10 -2 0
-4 -4 -4 -10z"/>
<path d="M1300 120 c-9 -6 -10 -10 -3 -10 6 0 15 5 18 10 8 12 4 12 -15 0z"/>
<path d="M3115 120 c3 -5 8 -10 11 -10 2 0 4 5 4 10 0 6 -5 10 -11 10 -5 0 -7
-4 -4 -10z"/>
</g>
</svg>
